<?xml version="1.0" standalone="no"?>
<!DOCTYPE svg PUBLIC "-//W3C//DTD SVG 20010904//EN"
 "http://www.w3.org/TR/2001/REC-SVG-20010904/DTD/svg10.dtd">
<svg version="1.0" xmlns="http://www.w3.org/2000/svg"
 width="1024.000000pt" height="1024.000000pt" viewBox="0 0 1024.000000 1024.000000"
 preserveAspectRatio="xMidYMid meet">
<metadata>
Created by potrace 1.14, written by Peter Selinger 2001-2017
</metadata>
<g transform="translate(0.000000,1024.000000) scale(0.100000,-0.100000)"
fill="#000000" stroke="none">
<path d="M4985 9599 c-468 -55 -898 -167 -1280 -333 -491 -214 -884 -467
-1276 -822 -213 -192 -423 -427 -646 -723 -3 -4 -67 34 -675 402 -196 118
-383 225 -415 237 -47 18 -74 21 -148 18 -76 -3 -100 -8 -158 -35 -83 -40
-156 -112 -192 -190 -28 -62 -32 -70 -82 -152 -45 -75 -71 -148 -94 -264 -19
-96 -19 -173 -17 -2870 l3 -2772 27 -97 c37 -135 88 -229 168 -309 113 -113
261 -167 430 -156 176 11 281 61 854 407 228 137 420 250 428 250 7 0 29 10
48 23 l34 24 80 -86 c191 -202 238 -249 357 -358 626 -565 1342 -928 2159
-1092 174 -35 202 -39 490 -71 105 -12 668 -12 770 0 234 26 285 33 390 51
292 51 605 139 890 251 310 122 697 334 975 536 419 304 820 720 1102 1142
160 239 318 535 418 780 25 63 52 129 59 145 13 31 120 363 137 425 51 190
104 478 132 720 16 139 16 741 0 880 -21 182 -71 468 -107 615 -38 157 -54
210 -105 365 -290 866 -816 1601 -1551 2167 -120 92 -348 243 -495 328 -94 54
-348 182 -425 214 -19 8 -69 29 -111 47 -106 45 -351 127 -499 167 -173 48
-221 58 -490 107 -30 6 -137 19 -237 30 -248 27 -714 27 -948 -1z m706 -1884
c90 -9 184 -20 209 -25 271 -59 383 -90 529 -149 725 -293 1281 -886 1514
-1616 98 -309 122 -466 122 -805 0 -288 -16 -414 -84 -685 -58 -230 -204 -548
-355 -772 -355 -530 -925 -926 -1541 -1071 -202 -47 -222 -50 -427 -68 -180
-16 -202 -16 -386 0 -254 23 -434 59 -637 128 -341 117 -671 309 -887 518
l-58 55 808 488 c921 556 907 547 1028 650 106 89 129 115 194 220 49 80 74
160 87 279 7 73 -22 239 -52 293 -93 167 -156 242 -283 332 -112 80 -178 121
-1249 768 l-792 479 32 44 c18 25 77 92 132 150 411 431 978 713 1565 777 254
28 319 29 531 10z"/>
</g>
</svg>
