<svg id="visual" viewBox="0 0 900 450" width="900" height="450" xmlns="http://www.w3.org/2000/svg" xmlns:xlink="http://www.w3.org/1999/xlink" version="1.1"><path d="M0 91L37.5 99.3C75 107.7 150 124.3 225 113.8C300 103.3 375 65.7 450 61.8C525 58 600 88 675 97C750 106 825 94 862.5 88L900 82L900 0L862.5 0C825 0 750 0 675 0C600 0 525 0 450 0C375 0 300 0 225 0C150 0 75 0 37.5 0L0 0Z" fill="#7c6bee"></path><path d="M0 100L37.5 108.3C75 116.7 150 133.3 225 132.7C300 132 375 114 450 111.7C525 109.3 600 122.7 675 131.7C750 140.7 825 145.3 862.5 147.7L900 150L900 80L862.5 86C825 92 750 104 675 95C600 86 525 56 450 59.8C375 63.7 300 101.3 225 111.8C150 122.3 75 105.7 37.5 97.3L0 89Z" fill="#6d5bcf"></path><path d="M0 123L37.5 132.7C75 142.3 150 161.7 225 172.2C300 182.7 375 184.3 450 203.8C525 223.3 600 260.7 675 265.8C750 271 825 244 862.5 230.5L900 217L900 148L862.5 145.7C825 143.3 750 138.7 675 129.7C600 120.7 525 107.3 450 109.7C375 112 300 130 225 130.7C150 131.3 75 114.7 37.5 106.3L0 98Z" fill="#5e4cb2"></path><path d="M0 168L37.5 171C75 174 150 180 225 195.7C300 211.3 375 236.7 450 262.8C525 289 600 316 675 312.3C750 308.7 825 274.3 862.5 257.2L900 240L900 215L862.5 228.5C825 242 750 269 675 263.8C600 258.7 525 221.3 450 201.8C375 182.3 300 180.7 225 170.2C150 159.7 75 140.3 37.5 130.7L0 121Z" fill="#503d95"></path><path d="M0 213L37.5 210.7C75 208.3 150 203.7 225 214.2C300 224.7 375 250.3 450 276.7C525 303 600 330 675 327.7C750 325.3 825 293.7 862.5 277.8L900 262L900 238L862.5 255.2C825 272.3 750 306.7 675 310.3C600 314 525 287 450 260.8C375 234.7 300 209.3 225 193.7C150 178 75 172 37.5 169L0 166Z" fill="#402f79"></path><path d="M0 289L37.5 284.5C75 280 150 271 225 271.8C300 272.7 375 283.3 450 299.8C525 316.3 600 338.7 675 340.8C750 343 825 325 862.5 316L900 307L900 260L862.5 275.8C825 291.7 750 323.3 675 325.7C600 328 525 301 450 274.7C375 248.3 300 222.7 225 212.2C150 201.7 75 206.3 37.5 208.7L0 211Z" fill="#31225f"></path><path d="M0 397L37.5 398.5C75 400 150 403 225 407.5C300 412 375 418 450 425.5C525 433 600 442 675 441.3C750 440.7 825 430.3 862.5 425.2L900 420L900 305L862.5 314C825 323 750 341 675 338.8C600 336.7 525 314.3 450 297.8C375 281.3 300 270.7 225 269.8C150 269 75 278 37.5 282.5L0 287Z" fill="#231546"></path><path d="M0 451L37.5 451C75 451 150 451 225 451C300 451 375 451 450 451C525 451 600 451 675 451C750 451 825 451 862.5 451L900 451L900 418L862.5 423.2C825 428.3 750 438.7 675 439.3C600 440 525 431 450 423.5C375 416 300 410 225 405.5C150 401 75 398 37.5 396.5L0 395Z" fill="#16062f"></path></svg>