<svg id="visual" viewBox="0 0 900 600" width="900" height="600" xmlns="http://www.w3.org/2000/svg" xmlns:xlink="http://www.w3.org/1999/xlink" version="1.1"><path d="M0 61L37.5 53C75 45 150 29 225 30C300 31 375 49 450 58C525 67 600 67 675 61C750 55 825 43 862.5 37L900 31L900 0L862.5 0C825 0 750 0 675 0C600 0 525 0 450 0C375 0 300 0 225 0C150 0 75 0 37.5 0L0 0Z" fill="#2a0660"></path><path d="M0 79L37.5 83C75 87 150 95 225 100C300 105 375 107 450 102C525 97 600 85 675 73C750 61 825 49 862.5 43L900 37L900 29L862.5 35C825 41 750 53 675 59C600 65 525 65 450 56C375 47 300 29 225 28C150 27 75 43 37.5 51L0 59Z" fill="#482a90"></path><path d="M0 133L37.5 131C75 129 150 125 225 135C300 145 375 169 450 169C525 169 600 145 675 121C750 97 825 73 862.5 61L900 49L900 35L862.5 41C825 47 750 59 675 71C600 83 525 95 450 100C375 105 300 103 225 98C150 93 75 85 37.5 81L0 77Z" fill="#654dc3"></path><path d="M0 259L37.5 237C75 215 150 171 225 173C300 175 375 223 450 230C525 237 600 203 675 168C750 133 825 97 862.5 79L900 61L900 47L862.5 59C825 71 750 95 675 119C600 143 525 167 450 167C375 167 300 143 225 133C150 123 75 127 37.5 129L0 131Z" fill="#7c6bee"></path><path d="M0 427L37.5 415C75 403 150 379 225 386C300 393 375 431 450 410C525 389 600 309 675 271C750 233 825 237 862.5 239L900 241L900 59L862.5 77C825 95 750 131 675 166C600 201 525 235 450 228C375 221 300 173 225 171C150 169 75 213 37.5 235L0 257Z" fill="#7c6bee"></path><path d="M0 499L37.5 479C75 459 150 419 225 422C300 425 375 471 450 447C525 423 600 329 675 291C750 253 825 271 862.5 280L900 289L900 239L862.5 237C825 235 750 231 675 269C600 307 525 387 450 408C375 429 300 391 225 384C150 377 75 401 37.5 413L0 425Z" fill="#654dc3"></path><path d="M0 589L37.5 567C75 545 150 501 225 493C300 485 375 513 450 492C525 471 600 401 675 369C750 337 825 343 862.5 346L900 349L900 287L862.5 278C825 269 750 251 675 289C600 327 525 421 450 445C375 469 300 423 225 420C150 417 75 457 37.5 477L0 497Z" fill="#482a90"></path><path d="M0 601L37.5 601C75 601 150 601 225 601C300 601 375 601 450 601C525 601 600 601 675 601C750 601 825 601 862.5 601L900 601L900 347L862.5 344C825 341 750 335 675 367C600 399 525 469 450 490C375 511 300 483 225 491C150 499 75 543 37.5 565L0 587Z" fill="#2a0660"></path></svg>